<svg xmlns="http://www.w3.org/2000/svg" width="18.3" height="18.3" viewBox="0 0 18.3 18.3"><defs><style>.a{fill:none;stroke:#ff8108;stroke-linecap:round;stroke-miterlimit:10;}</style></defs><path class="a" d="M49.641,61.807a.943.943,0,0,0-.164-.618,1.864,1.864,0,0,0-.106-.158A8.309,8.309,0,0,1,48,56.456a8.669,8.669,0,0,1,17.116-1.725,8.276,8.276,0,0,1,.184,1.732,8.48,8.48,0,0,1-8.508,8.522,10.184,10.184,0,0,1-2.348-.348c-.56-.157-1.119-.365-1.264-.42a1.293,1.293,0,0,0-.462-.086,1.277,1.277,0,0,0-.5.1l-2.821,1.018a.665.665,0,0,1-.194.051.4.4,0,0,1-.4-.405.659.659,0,0,1,.025-.137Z" transform="translate(-47.499 -47.5)"/></svg>