<svg xmlns="http://www.w3.org/2000/svg" width="15.003" height="20.101" viewBox="0 0 15.003 20.101"><defs><style>.a{fill:#ff3442;}</style></defs><g transform="translate(5.083 0)"><path class="a" d="M49.055,363.01a.4.4,0,1,0,.047.5.4.4,0,0,0-.047-.5h0Zm0,0" transform="translate(-51.782 -351.497)"/><path class="a" d="M7.019,12.317,8.683,9.337a1.356,1.356,0,0,0-1.172-2H5.7a4.651,4.651,0,0,0,.834-2.662,4.677,4.677,0,1,0-9.353,0,4.65,4.65,0,0,0,.834,2.662H-3.745a1.356,1.356,0,0,0-1.172,2l.74,1.326a.4.4,0,0,0,.693-.387l-.74-1.326a.554.554,0,0,1,.48-.818h2.455a4.668,4.668,0,0,0,6.3,0h2.5a.554.554,0,0,1,.48.818L6.184,12.185A3.97,3.97,0,0,0,2.061,16.11a3.907,3.907,0,0,0,.69,2.221l-.388.694a.554.554,0,0,1-.96,0l-3.347-5.994a.4.4,0,0,0-.693.387L.711,19.413a1.326,1.326,0,0,0,1.172.688,1.326,1.326,0,0,0,1.172-.688l.246-.44a3.929,3.929,0,1,0,3.717-6.655ZM1.859,8.56A3.883,3.883,0,1,1,5.742,4.677,3.888,3.888,0,0,1,1.859,8.56ZM5.991,19.246A3.136,3.136,0,1,1,9.127,16.11,3.14,3.14,0,0,1,5.991,19.246Zm0,0" transform="translate(0 0)"/><path class="a" d="M300.392,467.673l.829-.829a.4.4,0,0,0-.561-.561l-.829.829-.818-.818a.4.4,0,0,0-.561.561l.818.818-.829.829c-.357.357.2.92.561.561l.829-.829.84.84c.355.355.923-.2.561-.561Zm0,0" transform="translate(-293.881 -451.525)"/></g></svg>