<svg xmlns="http://www.w3.org/2000/svg" width="21.411" height="21.867" viewBox="0 0 21.411 21.867"><defs><style>.a{fill:none;stroke:#6e7e98;stroke-linecap:round;stroke-linejoin:round;stroke-width:2px;}</style></defs><path class="a" d="M57.933,48.977A2.971,2.971,0,1,0,60.6,51.642,2.971,2.971,0,0,0,57.933,48.977Zm7.153,2.956a7.165,7.165,0,0,1-.071.965l2.1,1.646a.5.5,0,0,1,.114.638l-1.985,3.435a.5.5,0,0,1-.61.213l-2.084-.839a.748.748,0,0,0-.7.081,7.635,7.635,0,0,1-1,.582.74.74,0,0,0-.409.564l-.312,2.223a.514.514,0,0,1-.5.426H55.656a.516.516,0,0,1-.5-.412l-.312-2.22a.746.746,0,0,0-.418-.567,7.209,7.209,0,0,1-1-.583.743.743,0,0,0-.7-.079l-2.084.839a.5.5,0,0,1-.61-.213L48.053,55.2a.5.5,0,0,1,.114-.638l1.774-1.393a.745.745,0,0,0,.279-.654c-.017-.194-.027-.387-.027-.58s.01-.384.027-.573a.743.743,0,0,0-.282-.647l-1.773-1.393a.5.5,0,0,1-.11-.635l1.985-3.435a.5.5,0,0,1,.61-.213l2.084.839a.748.748,0,0,0,.7-.081,7.635,7.635,0,0,1,1-.582.74.74,0,0,0,.409-.564l.312-2.223a.514.514,0,0,1,.5-.426h3.971a.516.516,0,0,1,.5.412l.312,2.22a.746.746,0,0,0,.418.567,7.209,7.209,0,0,1,1,.583.743.743,0,0,0,.7.079l2.084-.839a.5.5,0,0,1,.61.213l1.985,3.435a.5.5,0,0,1-.114.638L65.342,50.7a.745.745,0,0,0-.281.654C65.076,51.547,65.086,51.74,65.086,51.934Z" transform="translate(-46.936 -41)"/></svg>