<svg xmlns="http://www.w3.org/2000/svg" width="18.111" height="14.248" viewBox="0 0 18.111 14.248"><defs><style>.a{fill:none;stroke:#6e7e98;stroke-linecap:round;stroke-linejoin:round;}</style></defs><g transform="translate(0.5 0.707)"><path class="a" d="M400,304l2.139,2.139L400,308.278" transform="translate(-385.028 -295.444)"/><path class="a" d="M400,112l2.139,2.139L400,116.278" transform="translate(-385.028 -112)"/><path class="a" d="M64,260.278h3.8a3.565,3.565,0,0,0,2.966-1.587L72.556,256" transform="translate(-64 -249.583)"/><path class="a" d="M64,160h3.8a3.565,3.565,0,0,1,2.966,1.587l3.587,5.381a3.565,3.565,0,0,0,2.966,1.587h2.37" transform="translate(-64 -157.861)"/><path class="a" d="M293.7,160h-2.37a3.565,3.565,0,0,0-2.966,1.587l-.368.552" transform="translate(-278.018 -157.861)"/></g></svg>