<svg xmlns="http://www.w3.org/2000/svg" width="15" height="16.152" viewBox="0 0 15 16.152"><defs><style>.a{fill:none;stroke-linejoin:round;}.a,.b{stroke:#6e7e98;stroke-linecap:round;}.b{stroke-miterlimit:10;}</style></defs><g transform="translate(0.5 0.5)"><path class="a" d="M111.969,112.323l.759,11.332a1.17,1.17,0,0,0,1.166,1.166h6.7a1.173,1.173,0,0,0,1.166-1.166l.691-11.332" transform="translate(-110.245 -109.669)"/><line class="b" x2="14" transform="translate(0 2.825)"/><path class="a" d="M192,50.331V48.874h0a.872.872,0,0,1,.874-.874h2.914a.872.872,0,0,1,.874.874h0v1.457" transform="translate(-187.331 -48)"/><line class="a" y2="8" transform="translate(7 4.825)"/><line class="a" y2="8" transform="translate(4 4.825)"/><line class="a" y2="8" transform="translate(10 4.825)"/></g></svg>