<svg xmlns="http://www.w3.org/2000/svg" width="40.142" height="45.919" viewBox="0 0 40.142 45.919">
  <g id="support_1_" data-name="support (1)" transform="translate(-26.48)">
    <g id="Group_116" data-name="Group 116" transform="translate(26.48)">
      <path id="Path_284" data-name="Path 284" d="M62.259,15.708a15.708,15.708,0,0,0-31.415,0,4.738,4.738,0,0,0-4.363,5.149v8.2c0,3.84,2.688,5.236,5.236,5.236h2.531a.873.873,0,0,0,.873-.873V16.528a.873.873,0,0,0-.873-.873H32.589a13.962,13.962,0,0,1,27.925,0H58.855a.873.873,0,0,0-.873.873V33.4a.873.873,0,0,0,.873.873h1.658c-.244,6-3.124,7.4-8.875,7.653v-.585a1.745,1.745,0,0,0-1.745-1.745H44.4a1.745,1.745,0,0,0-1.745,1.745v2.836A1.745,1.745,0,0,0,44.4,45.919h5.506a1.745,1.745,0,0,0,1.745-1.745v-.506c5.533-.253,10.315-1.4,10.6-9.451a4.738,4.738,0,0,0,4.363-5.149v-8.2C66.622,17.444,64.51,15.987,62.259,15.708ZM33.374,17.34V32.524h-1.7a3.169,3.169,0,0,1-3.491-3.491v-8.2a3.172,3.172,0,0,1,3.491-3.491ZM49.911,42.856v1.326H44.4V41.346h5.506Zm14.966-13.8a3.172,3.172,0,0,1-3.491,3.491H59.728V17.4h1.7a3.169,3.169,0,0,1,3.491,3.491Z" transform="translate(-26.48)" fill="#781cd7"/>
    </g>
  </g>
</svg>
