<svg xmlns="http://www.w3.org/2000/svg" width="12.25" height="14" viewBox="0 0 12.25 14">
  <path id="Icon_awesome-trash" data-name="Icon awesome-trash" d="M11.813.875H8.531L8.274.364A.656.656,0,0,0,7.686,0H4.561a.649.649,0,0,0-.585.364L3.719.875H.438A.438.438,0,0,0,0,1.312v.875a.438.438,0,0,0,.438.438H11.813a.438.438,0,0,0,.438-.438V1.312A.438.438,0,0,0,11.813.875ZM1.455,12.77A1.313,1.313,0,0,0,2.764,14H9.486a1.312,1.312,0,0,0,1.31-1.23l.58-9.27H.875Z" transform="translate(0 0)" fill="#919cab"/>
</svg>
