<svg xmlns="http://www.w3.org/2000/svg" width="16.514" height="16.514" viewBox="0 0 16.514 16.514">
  <g id="Group_152" data-name="Group 152" transform="translate(-820.008 -33.939)">
    <path id="Path_28" data-name="Path 28" d="M79.514,132.654v8.921a1.939,1.939,0,0,1-1.939,1.939H65.939A1.939,1.939,0,0,1,64,141.575V129.939A1.939,1.939,0,0,1,65.939,128h8.12" transform="translate(756.508 -93.561)" fill="none" stroke="#ff8108" stroke-linecap="round" stroke-linejoin="round" stroke-width="1"/>
    <path id="Path_29" data-name="Path 29" d="M423.848,48.254a.779.779,0,0,0-1.126-.027l-.6.6a.388.388,0,0,0,0,.548l.55.549a.388.388,0,0,0,.55,0l.585-.582A.788.788,0,0,0,423.848,48.254Z" transform="translate(411.856 -13.439)" fill="#ff8108"/>
    <path id="Path_30" data-name="Path 30" d="M217.275,87.5l-8.752,8.737a.436.436,0,0,0-.112.191l-.4,1.206a.19.19,0,0,0,.236.236l1.2-.4a.436.436,0,0,0,.191-.112l8.737-8.753a.436.436,0,0,0,0-.614l-.482-.485A.436.436,0,0,0,217.275,87.5Z" transform="translate(615.491 -50.904)" fill="#ff8108"/>
  </g>
</svg>
