<svg xmlns="http://www.w3.org/2000/svg" width="18.08" height="17.998" viewBox="0 0 18.08 17.998">
  <g id="chatbubbles-outline_1_" data-name="chatbubbles-outline (1)" transform="translate(-47.418 -47.5)">
    <path id="Path_286" data-name="Path 286" d="M129.159,59.139a.748.748,0,0,1,.135-.5,1.373,1.373,0,0,1,.086-.127,6.62,6.62,0,0,0,1.128-3.69A6.951,6.951,0,0,0,123.41,48a7.049,7.049,0,0,0-6.959,5.431,6.567,6.567,0,0,0-.151,1.4,6.931,6.931,0,0,0,6.987,6.91,8.415,8.415,0,0,0,1.929-.315c.462-.127.919-.294,1.038-.339a1.081,1.081,0,0,1,.38-.069,1.062,1.062,0,0,1,.413.082l2.317.821a.552.552,0,0,0,.159.041.327.327,0,0,0,.327-.327.526.526,0,0,0-.02-.11Z" transform="translate(-65.51)" fill="none" stroke="#3a424f" stroke-linecap="round" stroke-miterlimit="10" stroke-width="1"/>
    <path id="Path_287" data-name="Path 287" d="M48.754,232a5.975,5.975,0,0,0,.261,6.238c.094.143.148.253.131.327s-.487,2.528-.487,2.528a.327.327,0,0,0,.111.314.334.334,0,0,0,.211.073.3.3,0,0,0,.119-.025l2.3-.9a.641.641,0,0,1,.49.008,6.921,6.921,0,0,0,2.486.49,6.506,6.506,0,0,0,3.271-.878" transform="translate(0 -176.481)" fill="none" stroke="#3a424f" stroke-linecap="round" stroke-miterlimit="10" stroke-width="1"/>
  </g>
</svg>
