<svg xmlns="http://www.w3.org/2000/svg" width="33.68" height="33.68" viewBox="0 0 33.68 33.68">
  <g id="Group_152" data-name="Group 152" transform="translate(-351 -194)">
    <g id="phone" transform="translate(351 193.996)">
      <g id="Group_139" data-name="Group 139" transform="translate(20.551 0.004)">
        <path id="Path_302" data-name="Path 302" d="M324.966,13.134a.571.571,0,0,1-.571-.571A11.43,11.43,0,0,0,312.978,1.146a.571.571,0,1,1,0-1.142,12.573,12.573,0,0,1,12.559,12.559A.571.571,0,0,1,324.966,13.134Z" transform="translate(-312.407 -0.004)" fill="#ebba16"/>
        <path id="Path_303" data-name="Path 303" d="M321.541,61.775a.571.571,0,0,1-.571-.571,8,8,0,0,0-7.992-7.992.571.571,0,1,1,0-1.142,9.144,9.144,0,0,1,9.134,9.134A.571.571,0,0,1,321.541,61.775Z" transform="translate(-312.407 -48.646)" fill="#ebba16"/>
        <path id="Path_304" data-name="Path 304" d="M318.116,110.418a.571.571,0,0,1-.571-.571,4.572,4.572,0,0,0-4.567-4.567.571.571,0,1,1,0-1.142,5.715,5.715,0,0,1,5.708,5.709A.571.571,0,0,1,318.116,110.418Z" transform="translate(-312.407 -97.289)" fill="#ebba16"/>
      </g>
      <path id="Path_305" data-name="Path 305" d="M33.108,33.468v4.984a3.326,3.326,0,0,1-3.316,3.336q-.157,0-.313-.014a32.984,32.984,0,0,1-14.367-5.1,32.432,32.432,0,0,1-9.988-9.969A32.83,32.83,0,0,1,.014,12.3,3.325,3.325,0,0,1,3.03,8.693q.148-.014.3-.014H8.321a3.327,3.327,0,0,1,3.329,2.858,21.293,21.293,0,0,0,1.165,4.668,3.318,3.318,0,0,1-.749,3.506l-2.114,2.11A26.612,26.612,0,0,0,19.94,31.79l2.114-2.11a3.335,3.335,0,0,1,3.512-.748A21.4,21.4,0,0,0,30.245,30.1,3.325,3.325,0,0,1,33.108,33.468Z" transform="translate(0 -8.105)" fill="#23a24d"/>
      <g id="Group_140" data-name="Group 140" transform="translate(1.711 2.287)">
        <path id="Path_306" data-name="Path 306" d="M27.719,42.709a.572.572,0,0,1-.547-.408,32.61,32.61,0,0,1-1.162-5.856,1.614,1.614,0,0,1,1.468-1.722q.071-.007.142-.007h4.666a.571.571,0,1,1,0,1.142H27.621a.5.5,0,0,0-.364.17.453.453,0,0,0-.11.305,31.415,31.415,0,0,0,1.119,5.641.571.571,0,0,1-.547.734Z" transform="translate(-26.004 -34.717)" fill="#177734"/>
        <path id="Path_307" data-name="Path 307" d="M362.182,388.684c-.014,0-.109,0-.156-.007a32.55,32.55,0,0,1-5.817-1.159.571.571,0,1,1,.328-1.094,31.382,31.382,0,0,0,5.6,1.117h.052a.465.465,0,0,0,.321-.14.476.476,0,0,0,.138-.34V382.4a.571.571,0,0,1,.571-.571h0a.571.571,0,0,1,.571.571v4.655a1.617,1.617,0,0,1-1.611,1.624Z" transform="translate(-334.107 -359)" fill="#177734"/>
      </g>
    </g>
  </g>
</svg>
