<svg xmlns="http://www.w3.org/2000/svg" width="48.966" height="49.9" viewBox="0 0 48.966 49.9">
  <g id="Group_155" data-name="Group 155" transform="translate(5.966 -319)">
    <path id="Subtraction_1" data-name="Subtraction 1" d="M-13562.612,10920.9h0a1.145,1.145,0,0,1-.8-.337,1.121,1.121,0,0,1-.324-.81,1.836,1.836,0,0,1,.072-.385l2.3-8.338a2.692,2.692,0,0,0-.463-1.743,4.545,4.545,0,0,0-.3-.446,23.441,23.441,0,0,1-3.874-12.924,23.38,23.38,0,0,1,6.906-16.673,24.333,24.333,0,0,1,7.841-5.273,24.809,24.809,0,0,1,9.667-1.937,24.863,24.863,0,0,1,12.287,3.234,6.466,6.466,0,0,0-.234,1.733,6.506,6.506,0,0,0,6.5,6.5,6.454,6.454,0,0,0,2.106-.35,23.341,23.341,0,0,1,3.273,7.895,23.583,23.583,0,0,1,.521,4.893,24.18,24.18,0,0,1-1.854,9.331,23.9,23.9,0,0,1-5.093,7.655,23.836,23.836,0,0,1-17.087,7.084,28.645,28.645,0,0,1-6.632-.984c-1.555-.435-3.105-1-3.571-1.187a3.6,3.6,0,0,0-1.3-.242,3.6,3.6,0,0,0-1.419.286l-7.971,2.874a1.747,1.747,0,0,1-.548.146Z" transform="translate(13560.034 -10552)" fill="#6ebcfa"/>
    <g id="infinite-outline" transform="translate(-28 178.714)">
      <path id="Path_273" data-name="Path 273" d="M46.045,166.019S43.035,160,38.145,160a6.02,6.02,0,1,0,0,12.038,8.267,8.267,0,0,0,5.894-3.01" fill="none" stroke="#fff" stroke-linecap="round" stroke-miterlimit="10" stroke-width="2"/>
      <path id="Path_274" data-name="Path 274" d="M256,166.019s3.01,6.019,7.9,6.019a6.02,6.02,0,1,0,0-12.038,8.267,8.267,0,0,0-5.894,3.01" transform="translate(-209.955)" fill="none" stroke="#fff" stroke-linecap="round" stroke-miterlimit="10" stroke-width="2"/>
    </g>
    <g id="Ellipse_83" data-name="Ellipse 83" transform="translate(31 319)" fill="#1e9af4" stroke="#3e90d9" stroke-width="1">
      <circle cx="6" cy="6" r="6" stroke="none"/>
      <circle cx="6" cy="6" r="5.5" fill="none"/>
    </g>
  </g>
</svg>
